<svg width="40" height="40" viewBox="0 0 40 40" fill="none" xmlns="http://www.w3.org/2000/svg">
<path d="M25 8.75H10C9.33696 8.75 8.70107 9.01339 8.23223 9.48223C7.76339 9.95107 7.5 10.587 7.5 11.25V35C7.49999 35.2297 7.56327 35.4549 7.68287 35.651C7.80248 35.8471 7.9738 36.0064 8.17802 36.1115C8.38224 36.2166 8.61146 36.2634 8.84054 36.2467C9.06961 36.2301 9.28967 36.1507 9.47656 36.0172L17.5 30.2859L25.525 36.0172C25.7119 36.1502 25.9318 36.2293 26.1606 36.2457C26.3895 36.2621 26.6184 36.2152 26.8223 36.1102C27.0263 36.0051 27.1974 35.846 27.3169 35.6502C27.4365 35.4544 27.4998 35.2294 27.5 35V11.25C27.5 10.587 27.2366 9.95107 26.7678 9.48223C26.2989 9.01339 25.663 8.75 25 8.75ZM25 32.5719L18.225 27.7281C18.013 27.5767 17.759 27.4953 17.4984 27.4953C17.2379 27.4953 16.9839 27.5767 16.7719 27.7281L10 32.5703V11.25H25V32.5719ZM32.5 6.25V30C32.5 30.3315 32.3683 30.6495 32.1339 30.8839C31.8995 31.1183 31.5815 31.25 31.25 31.25C30.9185 31.25 30.6005 31.1183 30.3661 30.8839C30.1317 30.6495 30 30.3315 30 30V6.25H13.75C13.4185 6.25 13.1005 6.1183 12.8661 5.88388C12.6317 5.64946 12.5 5.33152 12.5 5C12.5 4.66848 12.6317 4.35054 12.8661 4.11612C13.1005 3.8817 13.4185 3.75 13.75 3.75H30C30.663 3.75 31.2989 4.01339 31.7678 4.48223C32.2366 4.95107 32.5 5.58696 32.5 6.25Z" fill="white"/>
</svg>
