<svg width="40" height="40" viewBox="0 0 40 40" fill="none" xmlns="http://www.w3.org/2000/svg">
<path d="M12.5 10C12.5 9.66848 12.6317 9.35054 12.8661 9.11612C13.1005 8.8817 13.4185 8.75 13.75 8.75H33.75C34.0815 8.75 34.3995 8.8817 34.6339 9.11612C34.8683 9.35054 35 9.66848 35 10C35 10.3315 34.8683 10.6495 34.6339 10.8839C34.3995 11.1183 34.0815 11.25 33.75 11.25H13.75C13.4185 11.25 13.1005 11.1183 12.8661 10.8839C12.6317 10.6495 12.5 10.3315 12.5 10ZM33.75 18.75H13.75C13.4185 18.75 13.1005 18.8817 12.8661 19.1161C12.6317 19.3505 12.5 19.6685 12.5 20C12.5 20.3315 12.6317 20.6495 12.8661 20.8839C13.1005 21.1183 13.4185 21.25 13.75 21.25H33.75C34.0815 21.25 34.3995 21.1183 34.6339 20.8839C34.8683 20.6495 35 20.3315 35 20C35 19.6685 34.8683 19.3505 34.6339 19.1161C34.3995 18.8817 34.0815 18.75 33.75 18.75ZM33.75 28.75H13.75C13.4185 28.75 13.1005 28.8817 12.8661 29.1161C12.6317 29.3505 12.5 29.6685 12.5 30C12.5 30.3315 12.6317 30.6495 12.8661 30.8839C13.1005 31.1183 13.4185 31.25 13.75 31.25H33.75C34.0815 31.25 34.3995 31.1183 34.6339 30.8839C34.8683 30.6495 35 30.3315 35 30C35 29.6685 34.8683 29.3505 34.6339 29.1161C34.3995 28.8817 34.0815 28.75 33.75 28.75ZM6.875 8.125C6.50416 8.125 6.14165 8.23497 5.83331 8.44099C5.52496 8.64702 5.28464 8.93986 5.14273 9.28247C5.00081 9.62508 4.96368 10.0021 5.03603 10.3658C5.10838 10.7295 5.28695 11.0636 5.54918 11.3258C5.8114 11.588 6.14549 11.7666 6.50921 11.839C6.87292 11.9113 7.24992 11.8742 7.59253 11.7323C7.93514 11.5904 8.22798 11.35 8.43401 11.0417C8.64003 10.7334 8.75 10.3708 8.75 10C8.75 9.50272 8.55246 9.02581 8.20083 8.67417C7.8492 8.32254 7.37228 8.125 6.875 8.125ZM6.875 18.125C6.50416 18.125 6.14165 18.235 5.83331 18.441C5.52496 18.647 5.28464 18.9399 5.14273 19.2825C5.00081 19.6251 4.96368 20.0021 5.03603 20.3658C5.10838 20.7295 5.28695 21.0636 5.54918 21.3258C5.8114 21.588 6.14549 21.7666 6.50921 21.839C6.87292 21.9113 7.24992 21.8742 7.59253 21.7323C7.93514 21.5904 8.22798 21.35 8.43401 21.0417C8.64003 20.7334 8.75 20.3708 8.75 20C8.75 19.5027 8.55246 19.0258 8.20083 18.6742C7.8492 18.3225 7.37228 18.125 6.875 18.125ZM6.875 28.125C6.50416 28.125 6.14165 28.235 5.83331 28.441C5.52496 28.647 5.28464 28.9399 5.14273 29.2825C5.00081 29.6251 4.96368 30.0021 5.03603 30.3658C5.10838 30.7295 5.28695 31.0636 5.54918 31.3258C5.8114 31.588 6.14549 31.7666 6.50921 31.839C6.87292 31.9113 7.24992 31.8742 7.59253 31.7323C7.93514 31.5904 8.22798 31.35 8.43401 31.0417C8.64003 30.7334 8.75 30.3708 8.75 30C8.75 29.5027 8.55246 29.0258 8.20083 28.6742C7.8492 28.3225 7.37228 28.125 6.875 28.125Z" fill="white"/>
</svg>
