<svg width="40" height="40" viewBox="0 0 40 40" fill="none" xmlns="http://www.w3.org/2000/svg">
<path d="M33.75 7.5H6.25C5.91848 7.5 5.60054 7.6317 5.36612 7.86612C5.1317 8.10054 5 8.41848 5 8.75C5 9.08152 5.1317 9.39946 5.36612 9.63388C5.60054 9.8683 5.91848 10 6.25 10H7.5V32.5C7.5 33.163 7.76339 33.7989 8.23223 34.2678C8.70107 34.7366 9.33696 35 10 35H30C30.663 35 31.2989 34.7366 31.7678 34.2678C32.2366 33.7989 32.5 33.163 32.5 32.5V10H33.75C34.0815 10 34.3995 9.8683 34.6339 9.63388C34.8683 9.39946 35 9.08152 35 8.75C35 8.41848 34.8683 8.10054 34.6339 7.86612C34.3995 7.6317 34.0815 7.5 33.75 7.5ZM30 32.5H10V10H30V32.5ZM12.5 3.75C12.5 3.41848 12.6317 3.10054 12.8661 2.86612C13.1005 2.6317 13.4185 2.5 13.75 2.5H26.25C26.5815 2.5 26.8995 2.6317 27.1339 2.86612C27.3683 3.10054 27.5 3.41848 27.5 3.75C27.5 4.08152 27.3683 4.39946 27.1339 4.63388C26.8995 4.8683 26.5815 5 26.25 5H13.75C13.4185 5 13.1005 4.8683 12.8661 4.63388C12.6317 4.39946 12.5 4.08152 12.5 3.75Z" fill="white"/>
</svg>
